<?xml version="1.0" encoding="utf-8"?>
<!-- Generator: Adobe Illustrator 16.0.0, SVG Export Plug-In . SVG Version: 6.00 Build 0)  -->
<!DOCTYPE svg PUBLIC "-//W3C//DTD SVG 1.1//EN" "http://www.w3.org/Graphics/SVG/1.1/DTD/svg11.dtd">
<svg version="1.1" id="Camada_1" xmlns="http://www.w3.org/2000/svg" xmlns:xlink="http://www.w3.org/1999/xlink" x="0px" y="0px"
	 width="40.199px" height="40.143px" viewBox="0 0 40.199 40.143" enable-background="new 0 0 40.199 40.143" xml:space="preserve">
<g>
	<path fill="#FFFFFF" d="M31.571,40.142c-1.139,0-2.254-0.459-3.057-1.26L20.1,30.466l-8.414,8.416
		c-1.604,1.604-4.516,1.604-6.115,0l-4.309-4.311C0.459,33.769,0,32.655,0,31.513c0-1.141,0.459-2.256,1.262-3.055l8.412-8.416
		l-8.412-8.414C0.459,10.827,0,9.712,0,8.571s0.459-2.256,1.262-3.059l4.309-4.311c1.6-1.6,4.512-1.604,6.115,0L20.1,9.616
		l8.414-8.414c1.604-1.604,4.516-1.604,6.115,0.004l4.309,4.307C39.743,6.315,40.2,7.431,40.2,8.571s-0.457,2.256-1.262,3.057
		l-8.412,8.414l8.412,8.416c0.805,0.799,1.262,1.914,1.262,3.055c0,1.143-0.457,2.256-1.262,3.059l-4.309,4.311
		C33.831,39.683,32.715,40.142,31.571,40.142z M20.1,26.856l10.219,10.221c0.643,0.643,1.863,0.643,2.504,0.002l4.311-4.314
		c0.32-0.32,0.514-0.787,0.514-1.252c0-0.461-0.193-0.93-0.514-1.25L26.915,20.042L37.133,9.823c0.32-0.32,0.514-0.791,0.514-1.252
		c0-0.463-0.193-0.932-0.514-1.254l-4.311-4.311c-0.643-0.643-1.861-0.643-2.504,0L20.1,13.228L9.883,3.007
		c-0.645-0.643-1.865-0.641-2.506,0L3.067,7.317C2.747,7.64,2.553,8.108,2.553,8.571c0,0.461,0.193,0.932,0.514,1.252l10.221,10.219
		L3.067,30.263c-0.32,0.32-0.514,0.789-0.514,1.25c0,0.465,0.193,0.932,0.514,1.252l4.311,4.313c0.643,0.643,1.861,0.643,2.506,0
		L20.1,26.856z"/>
</g>
</svg>
